<svg width="38" height="38" viewBox="0 0 38 38" fill="none" xmlns="http://www.w3.org/2000/svg">
<rect width="38" height="38" rx="19" fill="white" fill-opacity="0.2"/>
<path d="M23.0545 9.65611L28.3716 15.1966C29.2095 16.0826 29.2095 17.4958 28.3716 18.3818L18.5 28.6889C17.6927 29.5286 16.5996 30 15.4601 30C14.3206 30 13.2275 29.5286 12.4202 28.6889L8.62839 24.7298C7.79054 23.8438 7.79054 22.4306 8.62839 21.5446L20.0146 9.65611C20.8632 8.7813 22.2166 8.7813 23.0545 9.65611ZM10.143 23.1372L13.9455 27.0963C14.7834 27.9823 16.1368 27.9823 16.9854 27.0963L20.7772 23.1372L15.4601 17.5855L10.143 23.1372Z" fill="white"/>
</svg>
