<svg width="38" height="38" viewBox="0 0 38 38" fill="none" xmlns="http://www.w3.org/2000/svg">
<rect width="38" height="38" rx="19" fill="white" fill-opacity="0.2"/>
<path d="M24.2307 15.7693C24.2307 16.7039 23.473 17.4616 22.5384 17.4616C21.6038 17.4616 20.8461 16.7039 20.8461 15.7693C20.8461 14.8346 21.6038 14.077 22.5384 14.077C23.473 14.077 24.2307 14.8346 24.2307 15.7693Z" fill="white"/>
<path fill-rule="evenodd" clip-rule="evenodd" d="M19.2023 10.0577H19.1052C17.152 10.0577 15.6212 10.0577 14.4269 10.2183C13.2044 10.3827 12.2398 10.7256 11.4827 11.4828C10.7255 12.2399 10.3825 13.2046 10.2182 14.427C10.0576 15.6214 10.0576 17.1521 10.0576 19.1053V19.2024C10.0576 21.1557 10.0576 22.6864 10.2182 23.8808C10.3825 25.1032 10.7255 26.0679 11.4827 26.825C12.2398 27.5822 13.2044 27.9251 14.4269 28.0895C15.6212 28.2501 17.152 28.2501 19.1052 28.25H19.2023C21.1556 28.2501 22.6863 28.2501 23.8806 28.0895C25.1031 27.9251 26.0677 27.5822 26.8249 26.825C27.582 26.0679 27.925 25.1032 28.0894 23.8808C28.2499 22.6864 28.2499 21.1557 28.2499 19.2024V19.1053C28.2499 17.1521 28.2499 15.6214 28.0894 14.427C27.925 13.2046 27.582 12.2399 26.8249 11.4828C26.0677 10.7256 25.1031 10.3827 23.8806 10.2183C22.6863 10.0577 21.1556 10.0577 19.2023 10.0577ZM12.3801 12.3803C12.8622 11.8982 13.5143 11.6216 14.596 11.4762C15.696 11.3283 17.1414 11.327 19.1538 11.327C21.1661 11.327 22.6115 11.3283 23.7115 11.4762C24.7932 11.6216 25.4454 11.8982 25.9274 12.3803C26.4094 12.8623 26.686 13.5144 26.8315 14.5962C26.9793 15.6961 26.9807 17.1415 26.9807 19.1539C26.9807 19.5349 26.9806 19.8955 26.9796 20.2373L26.7916 20.2113C24.3854 19.8781 22.1834 21.129 21.0622 23.0145C19.6157 19.355 15.7932 16.8592 11.5221 17.4725L11.3311 17.5C11.3407 16.3107 11.3723 15.3683 11.4761 14.5962C11.6215 13.5144 11.8981 12.8623 12.3801 12.3803Z" fill="white"/>
</svg>
