<svg width="38" height="38" viewBox="0 0 38 38" fill="none" xmlns="http://www.w3.org/2000/svg">
<rect width="38" height="38" rx="19" fill="white" fill-opacity="0.2"/>
<path d="M18.9998 29.8333C17.5193 29.8333 16.12 29.5487 14.8019 28.9796C13.4839 28.4105 12.333 27.6341 11.3493 26.6505C10.3657 25.6668 9.58928 24.5159 9.02017 23.1979C8.45106 21.8798 8.1665 20.4805 8.1665 19C8.1665 17.5013 8.46009 16.093 9.04725 14.775C9.63442 13.4569 10.4289 12.3104 11.4306 11.3354C12.4323 10.3604 13.6012 9.58868 14.9373 9.02029C16.2734 8.4519 17.6998 8.16735 19.2165 8.16663C20.6609 8.16663 22.0241 8.41507 23.3061 8.91196C24.588 9.40885 25.7122 10.095 26.6785 10.9703C27.6448 11.8456 28.4122 12.8838 28.9806 14.0849C29.549 15.2859 29.8332 16.5812 29.8332 17.9708C29.8332 20.0472 29.2012 21.6408 27.9373 22.7515C26.6734 23.8623 25.1387 24.4173 23.3332 24.4166H21.329C21.1665 24.4166 21.0538 24.4618 20.991 24.552C20.9282 24.6423 20.8964 24.7416 20.8957 24.85C20.8957 25.0666 21.0311 25.3783 21.3019 25.7849C21.5728 26.1915 21.7082 26.6562 21.7082 27.1791C21.7082 28.0819 21.4601 28.75 20.9639 29.1833C20.4678 29.6166 19.8131 29.8333 18.9998 29.8333ZM13.0415 20.0833C13.5109 20.0833 13.8991 19.9298 14.2061 19.6229C14.513 19.3159 14.6665 18.9277 14.6665 18.4583C14.6665 17.9888 14.513 17.6007 14.2061 17.2937C13.8991 16.9868 13.5109 16.8333 13.0415 16.8333C12.5721 16.8333 12.1839 16.9868 11.8769 17.2937C11.57 17.6007 11.4165 17.9888 11.4165 18.4583C11.4165 18.9277 11.57 19.3159 11.8769 19.6229C12.1839 19.9298 12.5721 20.0833 13.0415 20.0833ZM16.2915 15.75C16.7609 15.75 17.1491 15.5965 17.4561 15.2895C17.763 14.9826 17.9165 14.5944 17.9165 14.125C17.9165 13.6555 17.763 13.2673 17.4561 12.9604C17.1491 12.6534 16.7609 12.5 16.2915 12.5C15.8221 12.5 15.4339 12.6534 15.1269 12.9604C14.82 13.2673 14.6665 13.6555 14.6665 14.125C14.6665 14.5944 14.82 14.9826 15.1269 15.2895C15.4339 15.5965 15.8221 15.75 16.2915 15.75ZM21.7082 15.75C22.1776 15.75 22.5658 15.5965 22.8728 15.2895C23.1797 14.9826 23.3332 14.5944 23.3332 14.125C23.3332 13.6555 23.1797 13.2673 22.8728 12.9604C22.5658 12.6534 22.1776 12.5 21.7082 12.5C21.2387 12.5 20.8505 12.6534 20.5436 12.9604C20.2366 13.2673 20.0832 13.6555 20.0832 14.125C20.0832 14.5944 20.2366 14.9826 20.5436 15.2895C20.8505 15.5965 21.2387 15.75 21.7082 15.75ZM24.9582 20.0833C25.4276 20.0833 25.8158 19.9298 26.1228 19.6229C26.4297 19.3159 26.5832 18.9277 26.5832 18.4583C26.5832 17.9888 26.4297 17.6007 26.1228 17.2937C25.8158 16.9868 25.4276 16.8333 24.9582 16.8333C24.4887 16.8333 24.1005 16.9868 23.7936 17.2937C23.4866 17.6007 23.3332 17.9888 23.3332 18.4583C23.3332 18.9277 23.4866 19.3159 23.7936 19.6229C24.1005 19.9298 24.4887 20.0833 24.9582 20.0833Z" fill="white"/>
</svg>
